<svg xmlns="http://www.w3.org/2000/svg" viewBox="1839.641 452.66 12.515 9.734"><defs><style>.a,.b{fill:none;stroke:#fff;stroke-miterlimit:10;}.a{stroke-width:0.68px;}.b{stroke-width:0.24px;}</style></defs><g transform="translate(1442.981 4)"><path class="a" d="M1.627.5H12.072a.257.257,0,0,1,.263.263V7.188a.257.257,0,0,1-.263.263H4.821a.268.268,0,0,0-.225.113L3.506,9.442a.246.246,0,0,1-.413,0L1.928,7.526A.318.318,0,0,0,1.7,7.451H.763A.257.257,0,0,1,.5,7.188V.763A.257.257,0,0,1,.763.5Z" transform="translate(396.5 448.5)"/><line class="b" x2="8.228" transform="translate(398.691 450.803)"/><line class="b" x2="8.228" transform="translate(398.691 451.48)"/><line class="b" x2="8.228" transform="translate(398.691 452.156)"/><line class="b" x2="8.228" transform="translate(398.691 452.832)"/><line class="b" x2="8.228" transform="translate(398.691 453.508)"/><line class="b" x2="8.228" transform="translate(398.691 454.185)"/></g></svg>